<svg xmlns="http://www.w3.org/2000/svg" viewBox="0 0 96 96" width="96" height="96">
  <defs>
    <linearGradient id="bzi-bg" x1="0" y1="0" x2="1" y2="1">
      <stop offset="0" stop-color="#0A1F44"/>
      <stop offset="1" stop-color="#123E8C"/>
    </linearGradient>
    <linearGradient id="bzi-gold" x1="0" y1="0" x2="1" y2="1">
      <stop offset="0" stop-color="#E3C77B"/>
      <stop offset="1" stop-color="#C9A227"/>
    </linearGradient>
  </defs>
  <rect x="2" y="2" width="92" height="92" rx="22" fill="url(#bzi-bg)"/>
  <rect x="2" y="2" width="92" height="92" rx="22" fill="none" stroke="url(#bzi-gold)" stroke-width="2.5"/>
  <circle cx="48" cy="46" r="21" fill="none" stroke="#FFFFFF" stroke-opacity="0.22" stroke-width="1.5"/>
  <ellipse cx="48" cy="46" rx="21" ry="9" fill="none" stroke="#FFFFFF" stroke-opacity="0.22" stroke-width="1.5"/>
  <ellipse cx="48" cy="46" rx="9" ry="21" fill="none" stroke="#FFFFFF" stroke-opacity="0.22" stroke-width="1.5"/>
  <path d="M24 41 L72 41 L64 35 M24 41 L72 41 L64 47 M24 53 L72 53 L64 47" fill="none" stroke="url(#bzi-gold)" stroke-width="2.6" stroke-linecap="round" stroke-linejoin="round"/>
  <path d="M22 60 Q48 72 74 60" fill="none" stroke="#FFFFFF" stroke-opacity="0.85" stroke-width="2.2" stroke-linecap="round"/>
  <path d="M74 52 L78 60 L70 60 Z" fill="#FFFFFF"/>
  <text x="48" y="86" text-anchor="middle" font-family="Georgia, 'Times New Roman', serif" font-size="11" font-weight="bold" letter-spacing="2.5" fill="#E3C77B">BZI</text>
</svg>
